M48
; DRILL file {KiCad 7.0.5} date Wed Feb  7 02:00:26 2024
; FORMAT={-:-/ absolute / metric / decimal}
; #@! TF.CreationDate,2024-02-07T02:00:26+01:00
; #@! TF.GenerationSoftware,Kicad,Pcbnew,7.0.5
; #@! TF.FileFunction,Plated,1,2,PTH
FMAT,2
METRIC
; #@! TA.AperFunction,Plated,PTH,ViaDrill
T1C0.600
; #@! TA.AperFunction,Plated,PTH,ComponentDrill
T2C0.800
; #@! TA.AperFunction,Plated,PTH,ComponentDrill
T3C1.000
%
G90
G05
T1
X73.66Y-77.978
X74.422Y-57.912
X76.2Y-55.245
X78.232Y-57.912
X84.582Y-58.928
X85.852Y-76.454
T2
X90.17Y-47.53
X90.17Y-49.53
X90.17Y-51.53
T3
X70.639Y-61.725
X70.639Y-64.265
X70.639Y-66.805
X70.639Y-69.345
X70.639Y-71.885
X70.639Y-74.425
X72.009Y-38.735
X74.549Y-38.735
X77.089Y-38.735
X79.629Y-38.735
X82.169Y-38.735
X84.709Y-38.735
X85.879Y-61.725
X85.879Y-64.265
X85.879Y-66.805
X85.879Y-69.345
X85.879Y-71.885
X85.879Y-74.425
X90.17Y-55.88
X90.17Y-58.42
T0
M30
