%TF.GenerationSoftware,KiCad,Pcbnew,7.0.5*%
%TF.CreationDate,2024-02-07T02:01:45+01:00*%
%TF.ProjectId,thermometer-hw,74686572-6d6f-46d6-9574-65722d68772e,rev?*%
%TF.SameCoordinates,Original*%
%TF.FileFunction,Legend,Top*%
%TF.FilePolarity,Positive*%
%FSLAX46Y46*%
G04 Gerber Fmt 4.6, Leading zero omitted, Abs format (unit mm)*
G04 Created by KiCad (PCBNEW 7.0.5) date 2024-02-07 02:01:45*
%MOMM*%
%LPD*%
G01*
G04 APERTURE LIST*
%ADD10C,0.150000*%
%ADD11C,0.120000*%
G04 APERTURE END LIST*
D10*
%TO.C,U1*%
X83474819Y-51561904D02*
X84284342Y-51561904D01*
X84284342Y-51561904D02*
X84379580Y-51514285D01*
X84379580Y-51514285D02*
X84427200Y-51466666D01*
X84427200Y-51466666D02*
X84474819Y-51371428D01*
X84474819Y-51371428D02*
X84474819Y-51180952D01*
X84474819Y-51180952D02*
X84427200Y-51085714D01*
X84427200Y-51085714D02*
X84379580Y-51038095D01*
X84379580Y-51038095D02*
X84284342Y-50990476D01*
X84284342Y-50990476D02*
X83474819Y-50990476D01*
X84474819Y-49990476D02*
X84474819Y-50561904D01*
X84474819Y-50276190D02*
X83474819Y-50276190D01*
X83474819Y-50276190D02*
X83617676Y-50371428D01*
X83617676Y-50371428D02*
X83712914Y-50466666D01*
X83712914Y-50466666D02*
X83760533Y-50561904D01*
%TO.C,REF\u002A\u002A*%
X88836666Y-76129819D02*
X88503333Y-75653628D01*
X88265238Y-76129819D02*
X88265238Y-75129819D01*
X88265238Y-75129819D02*
X88646190Y-75129819D01*
X88646190Y-75129819D02*
X88741428Y-75177438D01*
X88741428Y-75177438D02*
X88789047Y-75225057D01*
X88789047Y-75225057D02*
X88836666Y-75320295D01*
X88836666Y-75320295D02*
X88836666Y-75463152D01*
X88836666Y-75463152D02*
X88789047Y-75558390D01*
X88789047Y-75558390D02*
X88741428Y-75606009D01*
X88741428Y-75606009D02*
X88646190Y-75653628D01*
X88646190Y-75653628D02*
X88265238Y-75653628D01*
X89265238Y-75606009D02*
X89598571Y-75606009D01*
X89741428Y-76129819D02*
X89265238Y-76129819D01*
X89265238Y-76129819D02*
X89265238Y-75129819D01*
X89265238Y-75129819D02*
X89741428Y-75129819D01*
X90503333Y-75606009D02*
X90170000Y-75606009D01*
X90170000Y-76129819D02*
X90170000Y-75129819D01*
X90170000Y-75129819D02*
X90646190Y-75129819D01*
X91170000Y-75129819D02*
X91170000Y-75367914D01*
X90931905Y-75272676D02*
X91170000Y-75367914D01*
X91170000Y-75367914D02*
X91408095Y-75272676D01*
X91027143Y-75558390D02*
X91170000Y-75367914D01*
X91170000Y-75367914D02*
X91312857Y-75558390D01*
X91931905Y-75129819D02*
X91931905Y-75367914D01*
X91693810Y-75272676D02*
X91931905Y-75367914D01*
X91931905Y-75367914D02*
X92170000Y-75272676D01*
X91789048Y-75558390D02*
X91931905Y-75367914D01*
X91931905Y-75367914D02*
X92074762Y-75558390D01*
X64960666Y-55682819D02*
X64627333Y-55206628D01*
X64389238Y-55682819D02*
X64389238Y-54682819D01*
X64389238Y-54682819D02*
X64770190Y-54682819D01*
X64770190Y-54682819D02*
X64865428Y-54730438D01*
X64865428Y-54730438D02*
X64913047Y-54778057D01*
X64913047Y-54778057D02*
X64960666Y-54873295D01*
X64960666Y-54873295D02*
X64960666Y-55016152D01*
X64960666Y-55016152D02*
X64913047Y-55111390D01*
X64913047Y-55111390D02*
X64865428Y-55159009D01*
X64865428Y-55159009D02*
X64770190Y-55206628D01*
X64770190Y-55206628D02*
X64389238Y-55206628D01*
X65389238Y-55159009D02*
X65722571Y-55159009D01*
X65865428Y-55682819D02*
X65389238Y-55682819D01*
X65389238Y-55682819D02*
X65389238Y-54682819D01*
X65389238Y-54682819D02*
X65865428Y-54682819D01*
X66627333Y-55159009D02*
X66294000Y-55159009D01*
X66294000Y-55682819D02*
X66294000Y-54682819D01*
X66294000Y-54682819D02*
X66770190Y-54682819D01*
X67294000Y-54682819D02*
X67294000Y-54920914D01*
X67055905Y-54825676D02*
X67294000Y-54920914D01*
X67294000Y-54920914D02*
X67532095Y-54825676D01*
X67151143Y-55111390D02*
X67294000Y-54920914D01*
X67294000Y-54920914D02*
X67436857Y-55111390D01*
X68055905Y-54682819D02*
X68055905Y-54920914D01*
X67817810Y-54825676D02*
X68055905Y-54920914D01*
X68055905Y-54920914D02*
X68294000Y-54825676D01*
X67913048Y-55111390D02*
X68055905Y-54920914D01*
X68055905Y-54920914D02*
X68198762Y-55111390D01*
%TO.C,C1*%
X86621580Y-50712666D02*
X86669200Y-50760285D01*
X86669200Y-50760285D02*
X86716819Y-50903142D01*
X86716819Y-50903142D02*
X86716819Y-50998380D01*
X86716819Y-50998380D02*
X86669200Y-51141237D01*
X86669200Y-51141237D02*
X86573961Y-51236475D01*
X86573961Y-51236475D02*
X86478723Y-51284094D01*
X86478723Y-51284094D02*
X86288247Y-51331713D01*
X86288247Y-51331713D02*
X86145390Y-51331713D01*
X86145390Y-51331713D02*
X85954914Y-51284094D01*
X85954914Y-51284094D02*
X85859676Y-51236475D01*
X85859676Y-51236475D02*
X85764438Y-51141237D01*
X85764438Y-51141237D02*
X85716819Y-50998380D01*
X85716819Y-50998380D02*
X85716819Y-50903142D01*
X85716819Y-50903142D02*
X85764438Y-50760285D01*
X85764438Y-50760285D02*
X85812057Y-50712666D01*
X86716819Y-49760285D02*
X86716819Y-50331713D01*
X86716819Y-50045999D02*
X85716819Y-50045999D01*
X85716819Y-50045999D02*
X85859676Y-50141237D01*
X85859676Y-50141237D02*
X85954914Y-50236475D01*
X85954914Y-50236475D02*
X86002533Y-50331713D01*
%TO.C,J1*%
X89836666Y-44924819D02*
X89836666Y-45639104D01*
X89836666Y-45639104D02*
X89789047Y-45781961D01*
X89789047Y-45781961D02*
X89693809Y-45877200D01*
X89693809Y-45877200D02*
X89550952Y-45924819D01*
X89550952Y-45924819D02*
X89455714Y-45924819D01*
X90836666Y-45924819D02*
X90265238Y-45924819D01*
X90550952Y-45924819D02*
X90550952Y-44924819D01*
X90550952Y-44924819D02*
X90455714Y-45067676D01*
X90455714Y-45067676D02*
X90360476Y-45162914D01*
X90360476Y-45162914D02*
X90265238Y-45210533D01*
%TO.C,REF\u002A\u002A*%
X64960666Y-37140819D02*
X64627333Y-36664628D01*
X64389238Y-37140819D02*
X64389238Y-36140819D01*
X64389238Y-36140819D02*
X64770190Y-36140819D01*
X64770190Y-36140819D02*
X64865428Y-36188438D01*
X64865428Y-36188438D02*
X64913047Y-36236057D01*
X64913047Y-36236057D02*
X64960666Y-36331295D01*
X64960666Y-36331295D02*
X64960666Y-36474152D01*
X64960666Y-36474152D02*
X64913047Y-36569390D01*
X64913047Y-36569390D02*
X64865428Y-36617009D01*
X64865428Y-36617009D02*
X64770190Y-36664628D01*
X64770190Y-36664628D02*
X64389238Y-36664628D01*
X65389238Y-36617009D02*
X65722571Y-36617009D01*
X65865428Y-37140819D02*
X65389238Y-37140819D01*
X65389238Y-37140819D02*
X65389238Y-36140819D01*
X65389238Y-36140819D02*
X65865428Y-36140819D01*
X66627333Y-36617009D02*
X66294000Y-36617009D01*
X66294000Y-37140819D02*
X66294000Y-36140819D01*
X66294000Y-36140819D02*
X66770190Y-36140819D01*
X67294000Y-36140819D02*
X67294000Y-36378914D01*
X67055905Y-36283676D02*
X67294000Y-36378914D01*
X67294000Y-36378914D02*
X67532095Y-36283676D01*
X67151143Y-36569390D02*
X67294000Y-36378914D01*
X67294000Y-36378914D02*
X67436857Y-36569390D01*
X68055905Y-36140819D02*
X68055905Y-36378914D01*
X67817810Y-36283676D02*
X68055905Y-36378914D01*
X68055905Y-36378914D02*
X68294000Y-36283676D01*
X67913048Y-36569390D02*
X68055905Y-36378914D01*
X68055905Y-36378914D02*
X68198762Y-36569390D01*
%TO.C,U2*%
X77470095Y-60019819D02*
X77470095Y-60829342D01*
X77470095Y-60829342D02*
X77517714Y-60924580D01*
X77517714Y-60924580D02*
X77565333Y-60972200D01*
X77565333Y-60972200D02*
X77660571Y-61019819D01*
X77660571Y-61019819D02*
X77851047Y-61019819D01*
X77851047Y-61019819D02*
X77946285Y-60972200D01*
X77946285Y-60972200D02*
X77993904Y-60924580D01*
X77993904Y-60924580D02*
X78041523Y-60829342D01*
X78041523Y-60829342D02*
X78041523Y-60019819D01*
X78470095Y-60115057D02*
X78517714Y-60067438D01*
X78517714Y-60067438D02*
X78612952Y-60019819D01*
X78612952Y-60019819D02*
X78851047Y-60019819D01*
X78851047Y-60019819D02*
X78946285Y-60067438D01*
X78946285Y-60067438D02*
X78993904Y-60115057D01*
X78993904Y-60115057D02*
X79041523Y-60210295D01*
X79041523Y-60210295D02*
X79041523Y-60305533D01*
X79041523Y-60305533D02*
X78993904Y-60448390D01*
X78993904Y-60448390D02*
X78422476Y-61019819D01*
X78422476Y-61019819D02*
X79041523Y-61019819D01*
%TO.C,REF\u002A\u002A*%
X88836666Y-37140819D02*
X88503333Y-36664628D01*
X88265238Y-37140819D02*
X88265238Y-36140819D01*
X88265238Y-36140819D02*
X88646190Y-36140819D01*
X88646190Y-36140819D02*
X88741428Y-36188438D01*
X88741428Y-36188438D02*
X88789047Y-36236057D01*
X88789047Y-36236057D02*
X88836666Y-36331295D01*
X88836666Y-36331295D02*
X88836666Y-36474152D01*
X88836666Y-36474152D02*
X88789047Y-36569390D01*
X88789047Y-36569390D02*
X88741428Y-36617009D01*
X88741428Y-36617009D02*
X88646190Y-36664628D01*
X88646190Y-36664628D02*
X88265238Y-36664628D01*
X89265238Y-36617009D02*
X89598571Y-36617009D01*
X89741428Y-37140819D02*
X89265238Y-37140819D01*
X89265238Y-37140819D02*
X89265238Y-36140819D01*
X89265238Y-36140819D02*
X89741428Y-36140819D01*
X90503333Y-36617009D02*
X90170000Y-36617009D01*
X90170000Y-37140819D02*
X90170000Y-36140819D01*
X90170000Y-36140819D02*
X90646190Y-36140819D01*
X91170000Y-36140819D02*
X91170000Y-36378914D01*
X90931905Y-36283676D02*
X91170000Y-36378914D01*
X91170000Y-36378914D02*
X91408095Y-36283676D01*
X91027143Y-36569390D02*
X91170000Y-36378914D01*
X91170000Y-36378914D02*
X91312857Y-36569390D01*
X91931905Y-36140819D02*
X91931905Y-36378914D01*
X91693810Y-36283676D02*
X91931905Y-36378914D01*
X91931905Y-36378914D02*
X92170000Y-36283676D01*
X91789048Y-36569390D02*
X91931905Y-36378914D01*
X91931905Y-36378914D02*
X92074762Y-36569390D01*
%TO.C,J2*%
X89836666Y-60204819D02*
X89836666Y-60919104D01*
X89836666Y-60919104D02*
X89789047Y-61061961D01*
X89789047Y-61061961D02*
X89693809Y-61157200D01*
X89693809Y-61157200D02*
X89550952Y-61204819D01*
X89550952Y-61204819D02*
X89455714Y-61204819D01*
X90265238Y-60300057D02*
X90312857Y-60252438D01*
X90312857Y-60252438D02*
X90408095Y-60204819D01*
X90408095Y-60204819D02*
X90646190Y-60204819D01*
X90646190Y-60204819D02*
X90741428Y-60252438D01*
X90741428Y-60252438D02*
X90789047Y-60300057D01*
X90789047Y-60300057D02*
X90836666Y-60395295D01*
X90836666Y-60395295D02*
X90836666Y-60490533D01*
X90836666Y-60490533D02*
X90789047Y-60633390D01*
X90789047Y-60633390D02*
X90217619Y-61204819D01*
X90217619Y-61204819D02*
X90836666Y-61204819D01*
D11*
%TO.C,C4*%
X86133000Y-56649252D02*
X86133000Y-56126748D01*
X87603000Y-56649252D02*
X87603000Y-56126748D01*
%TO.C,C2*%
X81668252Y-58139000D02*
X81145748Y-58139000D01*
X81668252Y-56669000D02*
X81145748Y-56669000D01*
%TO.C,U1*%
X83175000Y-50800000D02*
X83175000Y-47350000D01*
X83175000Y-50800000D02*
X83175000Y-52750000D01*
X74305000Y-50800000D02*
X74305000Y-48850000D01*
X74305000Y-50800000D02*
X74305000Y-52750000D01*
%TO.C,C3*%
X88238000Y-50284748D02*
X88238000Y-50807252D01*
X86768000Y-50284748D02*
X86768000Y-50807252D01*
%TO.C,C1*%
X85317000Y-50284748D02*
X85317000Y-50807252D01*
X83847000Y-50284748D02*
X83847000Y-50807252D01*
%TO.C,J1*%
X89110000Y-46470000D02*
X90170000Y-46470000D01*
X89110000Y-47530000D02*
X89110000Y-46470000D01*
X89110000Y-48530000D02*
X89110000Y-52590000D01*
X89110000Y-48530000D02*
X91230000Y-48530000D01*
X89110000Y-52590000D02*
X91230000Y-52590000D01*
X91230000Y-48530000D02*
X91230000Y-52590000D01*
%TO.C,U2*%
X74372000Y-61405000D02*
X74372000Y-61670000D01*
X74372000Y-61670000D02*
X72557000Y-61670000D01*
X74372000Y-77025000D02*
X74372000Y-76760000D01*
X78232000Y-61405000D02*
X74372000Y-61405000D01*
X78232000Y-61405000D02*
X82092000Y-61405000D01*
X78232000Y-77025000D02*
X74372000Y-77025000D01*
X78232000Y-77025000D02*
X82092000Y-77025000D01*
X82092000Y-61405000D02*
X82092000Y-61670000D01*
X82092000Y-77025000D02*
X82092000Y-76760000D01*
%TO.C,R2*%
X83847000Y-46963064D02*
X83847000Y-46508936D01*
X85317000Y-46963064D02*
X85317000Y-46508936D01*
%TO.C,R1*%
X79221064Y-60425000D02*
X78766936Y-60425000D01*
X79221064Y-58955000D02*
X78766936Y-58955000D01*
%TO.C,J2*%
X91500000Y-59750000D02*
X90170000Y-59750000D01*
X91500000Y-58420000D02*
X91500000Y-59750000D01*
X91500000Y-57150000D02*
X91500000Y-54550000D01*
X91500000Y-57150000D02*
X88840000Y-57150000D01*
X91500000Y-54550000D02*
X88840000Y-54550000D01*
X88840000Y-57150000D02*
X88840000Y-54550000D01*
%TD*%
M02*
