%TF.GenerationSoftware,KiCad,Pcbnew,7.0.5*%
%TF.CreationDate,2024-02-07T02:01:45+01:00*%
%TF.ProjectId,thermometer-hw,74686572-6d6f-46d6-9574-65722d68772e,rev?*%
%TF.SameCoordinates,Original*%
%TF.FileFunction,Copper,L2,Bot*%
%TF.FilePolarity,Positive*%
%FSLAX46Y46*%
G04 Gerber Fmt 4.6, Leading zero omitted, Abs format (unit mm)*
G04 Created by KiCad (PCBNEW 7.0.5) date 2024-02-07 02:01:45*
%MOMM*%
%LPD*%
G01*
G04 APERTURE LIST*
%TA.AperFunction,ComponentPad*%
%ADD10R,1.350000X1.350000*%
%TD*%
%TA.AperFunction,ComponentPad*%
%ADD11O,1.350000X1.350000*%
%TD*%
%TA.AperFunction,ComponentPad*%
%ADD12R,1.700000X1.700000*%
%TD*%
%TA.AperFunction,ComponentPad*%
%ADD13O,1.700000X1.700000*%
%TD*%
%TA.AperFunction,ComponentPad*%
%ADD14R,1.500000X1.500000*%
%TD*%
%TA.AperFunction,ComponentPad*%
%ADD15C,1.500000*%
%TD*%
%TA.AperFunction,ViaPad*%
%ADD16C,1.200000*%
%TD*%
%TA.AperFunction,Conductor*%
%ADD17C,0.600000*%
%TD*%
G04 APERTURE END LIST*
D10*
%TO.P,J1,1,Pin_1*%
%TO.N,1W*%
X90170000Y-47530000D03*
D11*
%TO.P,J1,2,Pin_2*%
%TO.N,+BATT*%
X90170000Y-49530000D03*
%TO.P,J1,3,Pin_3*%
%TO.N,GND*%
X90170000Y-51530000D03*
%TD*%
D12*
%TO.P,J2,1,Pin_1*%
%TO.N,+BATT*%
X90170000Y-58420000D03*
D13*
%TO.P,J2,2,Pin_2*%
%TO.N,GND*%
X90170000Y-55880000D03*
%TD*%
D14*
%TO.P,U3,1,e*%
%TO.N,Net-(U2-SEG_E)*%
X85879000Y-61725000D03*
D15*
%TO.P,U3,2,d*%
%TO.N,Net-(U2-SEG_D)*%
X85879000Y-64265000D03*
%TO.P,U3,3,DPX*%
%TO.N,Net-(U2-SEG_DP)*%
X85879000Y-66805000D03*
%TO.P,U3,4,c*%
%TO.N,Net-(U2-SEG_C)*%
X85879000Y-69345000D03*
%TO.P,U3,5,g*%
%TO.N,Net-(U2-SEG_G)*%
X85879000Y-71885000D03*
%TO.P,U3,6,CC4*%
%TO.N,DIGIT3*%
X85879000Y-74425000D03*
%TO.P,U3,7,b*%
%TO.N,Net-(U2-SEG_B)*%
X70639000Y-74425000D03*
%TO.P,U3,8,CC3*%
%TO.N,DIGIT2*%
X70639000Y-71885000D03*
%TO.P,U3,9,CC2*%
%TO.N,DIGIT1*%
X70639000Y-69345000D03*
%TO.P,U3,10,f*%
%TO.N,Net-(U2-SEG_F)*%
X70639000Y-66805000D03*
%TO.P,U3,11,a*%
%TO.N,Net-(U2-SEG_A)*%
X70639000Y-64265000D03*
%TO.P,U3,12,CC1*%
%TO.N,DIGIT0*%
X70639000Y-61725000D03*
%TD*%
D12*
%TO.P,J3,1,Pin_1*%
%TO.N,MOSI*%
X84709000Y-38735000D03*
D13*
%TO.P,J3,2,Pin_2*%
%TO.N,RST*%
X82169000Y-38735000D03*
%TO.P,J3,3,Pin_3*%
%TO.N,+BATT*%
X79629000Y-38735000D03*
%TO.P,J3,4,Pin_4*%
%TO.N,MISO*%
X77089000Y-38735000D03*
%TO.P,J3,5,Pin_5*%
%TO.N,SCK*%
X74549000Y-38735000D03*
%TO.P,J3,6,Pin_6*%
%TO.N,GND*%
X72009000Y-38735000D03*
%TD*%
D16*
%TO.N,GND*%
X74422000Y-57912000D03*
X78232000Y-57912000D03*
%TO.N,SCK*%
X76200000Y-55245000D03*
X84582000Y-58928000D03*
%TO.N,DIGIT3*%
X73660000Y-77978000D03*
X85852000Y-76454000D03*
%TD*%
D17*
%TO.N,GND*%
X78232000Y-57912000D02*
X74422000Y-57912000D01*
%TO.N,SCK*%
X76200000Y-55245000D02*
X77089000Y-56134000D01*
X77089000Y-56134000D02*
X79883000Y-56134000D01*
X79883000Y-56134000D02*
X82677000Y-58928000D01*
X82677000Y-58928000D02*
X84582000Y-58928000D01*
%TO.N,DIGIT3*%
X85852000Y-76454000D02*
X84328000Y-77978000D01*
X84328000Y-77978000D02*
X73660000Y-77978000D01*
%TD*%
M02*
