%TF.GenerationSoftware,KiCad,Pcbnew,7.0.5*%
%TF.CreationDate,2024-02-26T15:45:18+01:00*%
%TF.ProjectId,thermometer-hw,74686572-6d6f-46d6-9574-65722d68772e,rev?*%
%TF.SameCoordinates,Original*%
%TF.FileFunction,Legend,Top*%
%TF.FilePolarity,Positive*%
%FSLAX46Y46*%
G04 Gerber Fmt 4.6, Leading zero omitted, Abs format (unit mm)*
G04 Created by KiCad (PCBNEW 7.0.5) date 2024-02-26 15:45:18*
%MOMM*%
%LPD*%
G01*
G04 APERTURE LIST*
%ADD10C,0.150000*%
%ADD11C,0.120000*%
G04 APERTURE END LIST*
D10*
%TO.C,U1*%
X14478095Y22462181D02*
X14478095Y21652658D01*
X14478095Y21652658D02*
X14525714Y21557420D01*
X14525714Y21557420D02*
X14573333Y21509801D01*
X14573333Y21509801D02*
X14668571Y21462181D01*
X14668571Y21462181D02*
X14859047Y21462181D01*
X14859047Y21462181D02*
X14954285Y21509801D01*
X14954285Y21509801D02*
X15001904Y21557420D01*
X15001904Y21557420D02*
X15049523Y21652658D01*
X15049523Y21652658D02*
X15049523Y22462181D01*
X16049523Y21462181D02*
X15478095Y21462181D01*
X15763809Y21462181D02*
X15763809Y22462181D01*
X15763809Y22462181D02*
X15668571Y22319324D01*
X15668571Y22319324D02*
X15573333Y22224086D01*
X15573333Y22224086D02*
X15478095Y22176467D01*
%TO.C,REF\u002A\u002A*%
X40569819Y26733666D02*
X40093628Y26400333D01*
X40569819Y26162238D02*
X39569819Y26162238D01*
X39569819Y26162238D02*
X39569819Y26543190D01*
X39569819Y26543190D02*
X39617438Y26638428D01*
X39617438Y26638428D02*
X39665057Y26686047D01*
X39665057Y26686047D02*
X39760295Y26733666D01*
X39760295Y26733666D02*
X39903152Y26733666D01*
X39903152Y26733666D02*
X39998390Y26686047D01*
X39998390Y26686047D02*
X40046009Y26638428D01*
X40046009Y26638428D02*
X40093628Y26543190D01*
X40093628Y26543190D02*
X40093628Y26162238D01*
X40046009Y27162238D02*
X40046009Y27495571D01*
X40569819Y27638428D02*
X40569819Y27162238D01*
X40569819Y27162238D02*
X39569819Y27162238D01*
X39569819Y27162238D02*
X39569819Y27638428D01*
X40046009Y28400333D02*
X40046009Y28067000D01*
X40569819Y28067000D02*
X39569819Y28067000D01*
X39569819Y28067000D02*
X39569819Y28543190D01*
X39569819Y29067000D02*
X39807914Y29067000D01*
X39712676Y28828905D02*
X39807914Y29067000D01*
X39807914Y29067000D02*
X39712676Y29305095D01*
X39998390Y28924143D02*
X39807914Y29067000D01*
X39807914Y29067000D02*
X39998390Y29209857D01*
X39569819Y29828905D02*
X39807914Y29828905D01*
X39712676Y29590810D02*
X39807914Y29828905D01*
X39807914Y29828905D02*
X39712676Y30067000D01*
X39998390Y29686048D02*
X39807914Y29828905D01*
X39807914Y29828905D02*
X39998390Y29971762D01*
X20122819Y2857667D02*
X19646628Y2524334D01*
X20122819Y2286239D02*
X19122819Y2286239D01*
X19122819Y2286239D02*
X19122819Y2667191D01*
X19122819Y2667191D02*
X19170438Y2762429D01*
X19170438Y2762429D02*
X19218057Y2810048D01*
X19218057Y2810048D02*
X19313295Y2857667D01*
X19313295Y2857667D02*
X19456152Y2857667D01*
X19456152Y2857667D02*
X19551390Y2810048D01*
X19551390Y2810048D02*
X19599009Y2762429D01*
X19599009Y2762429D02*
X19646628Y2667191D01*
X19646628Y2667191D02*
X19646628Y2286239D01*
X19599009Y3286239D02*
X19599009Y3619572D01*
X20122819Y3762429D02*
X20122819Y3286239D01*
X20122819Y3286239D02*
X19122819Y3286239D01*
X19122819Y3286239D02*
X19122819Y3762429D01*
X19599009Y4524334D02*
X19599009Y4191001D01*
X20122819Y4191001D02*
X19122819Y4191001D01*
X19122819Y4191001D02*
X19122819Y4667191D01*
X19122819Y5191001D02*
X19360914Y5191001D01*
X19265676Y4952906D02*
X19360914Y5191001D01*
X19360914Y5191001D02*
X19265676Y5429096D01*
X19551390Y5048144D02*
X19360914Y5191001D01*
X19360914Y5191001D02*
X19551390Y5333858D01*
X19122819Y5952906D02*
X19360914Y5952906D01*
X19265676Y5714811D02*
X19360914Y5952906D01*
X19360914Y5952906D02*
X19265676Y6191001D01*
X19551390Y5810049D02*
X19360914Y5952906D01*
X19360914Y5952906D02*
X19551390Y6095763D01*
%TO.C,C1*%
X14819333Y23799418D02*
X14771714Y23751799D01*
X14771714Y23751799D02*
X14628857Y23704179D01*
X14628857Y23704179D02*
X14533619Y23704179D01*
X14533619Y23704179D02*
X14390762Y23751799D01*
X14390762Y23751799D02*
X14295524Y23847037D01*
X14295524Y23847037D02*
X14247905Y23942275D01*
X14247905Y23942275D02*
X14200286Y24132751D01*
X14200286Y24132751D02*
X14200286Y24275608D01*
X14200286Y24275608D02*
X14247905Y24466084D01*
X14247905Y24466084D02*
X14295524Y24561322D01*
X14295524Y24561322D02*
X14390762Y24656560D01*
X14390762Y24656560D02*
X14533619Y24704179D01*
X14533619Y24704179D02*
X14628857Y24704179D01*
X14628857Y24704179D02*
X14771714Y24656560D01*
X14771714Y24656560D02*
X14819333Y24608941D01*
X15771714Y23704179D02*
X15200286Y23704179D01*
X15486000Y23704179D02*
X15486000Y24704179D01*
X15486000Y24704179D02*
X15390762Y24561322D01*
X15390762Y24561322D02*
X15295524Y24466084D01*
X15295524Y24466084D02*
X15200286Y24418465D01*
%TO.C,J1*%
X9364819Y27733666D02*
X10079104Y27733666D01*
X10079104Y27733666D02*
X10221961Y27686047D01*
X10221961Y27686047D02*
X10317200Y27590809D01*
X10317200Y27590809D02*
X10364819Y27447952D01*
X10364819Y27447952D02*
X10364819Y27352714D01*
X10364819Y28733666D02*
X10364819Y28162238D01*
X10364819Y28447952D02*
X9364819Y28447952D01*
X9364819Y28447952D02*
X9507676Y28352714D01*
X9507676Y28352714D02*
X9602914Y28257476D01*
X9602914Y28257476D02*
X9650533Y28162238D01*
%TO.C,REF\u002A\u002A*%
X1580819Y2857667D02*
X1104628Y2524334D01*
X1580819Y2286239D02*
X580819Y2286239D01*
X580819Y2286239D02*
X580819Y2667191D01*
X580819Y2667191D02*
X628438Y2762429D01*
X628438Y2762429D02*
X676057Y2810048D01*
X676057Y2810048D02*
X771295Y2857667D01*
X771295Y2857667D02*
X914152Y2857667D01*
X914152Y2857667D02*
X1009390Y2810048D01*
X1009390Y2810048D02*
X1057009Y2762429D01*
X1057009Y2762429D02*
X1104628Y2667191D01*
X1104628Y2667191D02*
X1104628Y2286239D01*
X1057009Y3286239D02*
X1057009Y3619572D01*
X1580819Y3762429D02*
X1580819Y3286239D01*
X1580819Y3286239D02*
X580819Y3286239D01*
X580819Y3286239D02*
X580819Y3762429D01*
X1057009Y4524334D02*
X1057009Y4191001D01*
X1580819Y4191001D02*
X580819Y4191001D01*
X580819Y4191001D02*
X580819Y4667191D01*
X580819Y5191001D02*
X818914Y5191001D01*
X723676Y4952906D02*
X818914Y5191001D01*
X818914Y5191001D02*
X723676Y5429096D01*
X1009390Y5048144D02*
X818914Y5191001D01*
X818914Y5191001D02*
X1009390Y5333858D01*
X580819Y5952906D02*
X818914Y5952906D01*
X723676Y5714811D02*
X818914Y5952906D01*
X818914Y5952906D02*
X723676Y6191001D01*
X1009390Y5810049D02*
X818914Y5952906D01*
X818914Y5952906D02*
X1009390Y6095763D01*
%TO.C,U2*%
X24459819Y15367095D02*
X25269342Y15367095D01*
X25269342Y15367095D02*
X25364580Y15414714D01*
X25364580Y15414714D02*
X25412200Y15462333D01*
X25412200Y15462333D02*
X25459819Y15557571D01*
X25459819Y15557571D02*
X25459819Y15748047D01*
X25459819Y15748047D02*
X25412200Y15843285D01*
X25412200Y15843285D02*
X25364580Y15890904D01*
X25364580Y15890904D02*
X25269342Y15938523D01*
X25269342Y15938523D02*
X24459819Y15938523D01*
X24555057Y16367095D02*
X24507438Y16414714D01*
X24507438Y16414714D02*
X24459819Y16509952D01*
X24459819Y16509952D02*
X24459819Y16748047D01*
X24459819Y16748047D02*
X24507438Y16843285D01*
X24507438Y16843285D02*
X24555057Y16890904D01*
X24555057Y16890904D02*
X24650295Y16938523D01*
X24650295Y16938523D02*
X24745533Y16938523D01*
X24745533Y16938523D02*
X24888390Y16890904D01*
X24888390Y16890904D02*
X25459819Y16319476D01*
X25459819Y16319476D02*
X25459819Y16938523D01*
%TO.C,REF\u002A\u002A*%
X1580819Y26733666D02*
X1104628Y26400333D01*
X1580819Y26162238D02*
X580819Y26162238D01*
X580819Y26162238D02*
X580819Y26543190D01*
X580819Y26543190D02*
X628438Y26638428D01*
X628438Y26638428D02*
X676057Y26686047D01*
X676057Y26686047D02*
X771295Y26733666D01*
X771295Y26733666D02*
X914152Y26733666D01*
X914152Y26733666D02*
X1009390Y26686047D01*
X1009390Y26686047D02*
X1057009Y26638428D01*
X1057009Y26638428D02*
X1104628Y26543190D01*
X1104628Y26543190D02*
X1104628Y26162238D01*
X1057009Y27162238D02*
X1057009Y27495571D01*
X1580819Y27638428D02*
X1580819Y27162238D01*
X1580819Y27162238D02*
X580819Y27162238D01*
X580819Y27162238D02*
X580819Y27638428D01*
X1057009Y28400333D02*
X1057009Y28067000D01*
X1580819Y28067000D02*
X580819Y28067000D01*
X580819Y28067000D02*
X580819Y28543190D01*
X580819Y29067000D02*
X818914Y29067000D01*
X723676Y28828905D02*
X818914Y29067000D01*
X818914Y29067000D02*
X723676Y29305095D01*
X1009390Y28924143D02*
X818914Y29067000D01*
X818914Y29067000D02*
X1009390Y29209857D01*
X580819Y29828905D02*
X818914Y29828905D01*
X723676Y29590810D02*
X818914Y29828905D01*
X818914Y29828905D02*
X723676Y30067000D01*
X1009390Y29686048D02*
X818914Y29828905D01*
X818914Y29828905D02*
X1009390Y29971762D01*
%TO.C,J2*%
X24644819Y27733666D02*
X25359104Y27733666D01*
X25359104Y27733666D02*
X25501961Y27686047D01*
X25501961Y27686047D02*
X25597200Y27590809D01*
X25597200Y27590809D02*
X25644819Y27447952D01*
X25644819Y27447952D02*
X25644819Y27352714D01*
X24740057Y28162238D02*
X24692438Y28209857D01*
X24692438Y28209857D02*
X24644819Y28305095D01*
X24644819Y28305095D02*
X24644819Y28543190D01*
X24644819Y28543190D02*
X24692438Y28638428D01*
X24692438Y28638428D02*
X24740057Y28686047D01*
X24740057Y28686047D02*
X24835295Y28733666D01*
X24835295Y28733666D02*
X24930533Y28733666D01*
X24930533Y28733666D02*
X25073390Y28686047D01*
X25073390Y28686047D02*
X25644819Y28114619D01*
X25644819Y28114619D02*
X25644819Y28733666D01*
D11*
%TO.C,C4*%
X21089252Y24030000D02*
X20566748Y24030000D01*
X21089252Y25500000D02*
X20566748Y25500000D01*
%TO.C,C2*%
X22579000Y19565252D02*
X22579000Y19042748D01*
X21109000Y19565252D02*
X21109000Y19042748D01*
%TO.C,U1*%
X15240000Y21072001D02*
X11790000Y21072001D01*
X15240000Y21072001D02*
X17190000Y21072001D01*
X15240000Y12202001D02*
X13290000Y12202001D01*
X15240000Y12202001D02*
X17190000Y12202001D01*
%TO.C,C3*%
X14724748Y26134999D02*
X15247252Y26134999D01*
X14724748Y24664999D02*
X15247252Y24664999D01*
%TO.C,C1*%
X14724748Y23213999D02*
X15247252Y23213999D01*
X14724748Y21743999D02*
X15247252Y21743999D01*
%TO.C,J1*%
X10910000Y27007000D02*
X10910000Y28067000D01*
X11970000Y27007000D02*
X10910000Y27007000D01*
X12970000Y27007000D02*
X17030000Y27007000D01*
X12970000Y27007000D02*
X12970000Y29127000D01*
X17030000Y27007000D02*
X17030000Y29127000D01*
X12970000Y29127000D02*
X17030000Y29127000D01*
%TO.C,U2*%
X25845000Y12269000D02*
X26110000Y12269000D01*
X26110000Y12269000D02*
X26110000Y10454000D01*
X41465000Y12269000D02*
X41200000Y12269000D01*
X25845000Y16129000D02*
X25845000Y12269000D01*
X25845000Y16129000D02*
X25845000Y19989000D01*
X41465000Y16129000D02*
X41465000Y12269000D01*
X41465000Y16129000D02*
X41465000Y19989000D01*
X25845000Y19989000D02*
X26110000Y19989000D01*
X41465000Y19989000D02*
X41200000Y19989000D01*
%TO.C,R2*%
X11403065Y21744000D02*
X10948937Y21744000D01*
X11403065Y23214000D02*
X10948937Y23214000D01*
%TO.C,R1*%
X24865000Y17118064D02*
X24865000Y16663936D01*
X23395000Y17118064D02*
X23395000Y16663936D01*
%TO.C,J2*%
X24190000Y29397000D02*
X24190000Y28067000D01*
X22860000Y29397000D02*
X24190000Y29397000D01*
X21590000Y29397000D02*
X18990000Y29397000D01*
X21590000Y29397000D02*
X21590000Y26737000D01*
X18990000Y29397000D02*
X18990000Y26737000D01*
X21590000Y26737000D02*
X18990000Y26737000D01*
%TD*%
M02*
