%TF.GenerationSoftware,KiCad,Pcbnew,7.0.5*%
%TF.CreationDate,2024-02-26T15:45:18+01:00*%
%TF.ProjectId,thermometer-hw,74686572-6d6f-46d6-9574-65722d68772e,rev?*%
%TF.SameCoordinates,Original*%
%TF.FileFunction,Paste,Top*%
%TF.FilePolarity,Positive*%
%FSLAX46Y46*%
G04 Gerber Fmt 4.6, Leading zero omitted, Abs format (unit mm)*
G04 Created by KiCad (PCBNEW 7.0.5) date 2024-02-26 15:45:18*
%MOMM*%
%LPD*%
G01*
G04 APERTURE LIST*
G04 Aperture macros list*
%AMRoundRect*
0 Rectangle with rounded corners*
0 $1 Rounding radius*
0 $2 $3 $4 $5 $6 $7 $8 $9 X,Y pos of 4 corners*
0 Add a 4 corners polygon primitive as box body*
4,1,4,$2,$3,$4,$5,$6,$7,$8,$9,$2,$3,0*
0 Add four circle primitives for the rounded corners*
1,1,$1+$1,$2,$3*
1,1,$1+$1,$4,$5*
1,1,$1+$1,$6,$7*
1,1,$1+$1,$8,$9*
0 Add four rect primitives between the rounded corners*
20,1,$1+$1,$2,$3,$4,$5,0*
20,1,$1+$1,$4,$5,$6,$7,0*
20,1,$1+$1,$6,$7,$8,$9,0*
20,1,$1+$1,$8,$9,$2,$3,0*%
G04 Aperture macros list end*
%ADD10RoundRect,0.250000X0.337500X0.475000X-0.337500X0.475000X-0.337500X-0.475000X0.337500X-0.475000X0*%
%ADD11RoundRect,0.250000X-0.475000X0.337500X-0.475000X-0.337500X0.475000X-0.337500X0.475000X0.337500X0*%
%ADD12RoundRect,0.150000X-0.825000X-0.150000X0.825000X-0.150000X0.825000X0.150000X-0.825000X0.150000X0*%
%ADD13RoundRect,0.250000X-0.337500X-0.475000X0.337500X-0.475000X0.337500X0.475000X-0.337500X0.475000X0*%
%ADD14RoundRect,0.150000X0.150000X-0.875000X0.150000X0.875000X-0.150000X0.875000X-0.150000X-0.875000X0*%
%ADD15RoundRect,0.250000X0.350000X0.450000X-0.350000X0.450000X-0.350000X-0.450000X0.350000X-0.450000X0*%
%ADD16RoundRect,0.250000X-0.450000X0.350000X-0.450000X-0.350000X0.450000X-0.350000X0.450000X0.350000X0*%
G04 APERTURE END LIST*
D10*
%TO.C,C4*%
X21865500Y24765000D03*
X19790500Y24765000D03*
%TD*%
D11*
%TO.C,C2*%
X21844000Y20341500D03*
X21844000Y18266500D03*
%TD*%
D12*
%TO.C,U1*%
X12765000Y20447001D03*
X12765000Y19177001D03*
X12765000Y17907001D03*
X12765000Y16637001D03*
X12765000Y15367001D03*
X12765000Y14097001D03*
X12765000Y12827001D03*
X17715000Y12827001D03*
X17715000Y14097001D03*
X17715000Y15367001D03*
X17715000Y16637001D03*
X17715000Y17907001D03*
X17715000Y19177001D03*
X17715000Y20447001D03*
%TD*%
D13*
%TO.C,C3*%
X13948500Y25399999D03*
X16023500Y25399999D03*
%TD*%
%TO.C,C1*%
X13948500Y22478999D03*
X16023500Y22478999D03*
%TD*%
D14*
%TO.C,U2*%
X26670000Y11479000D03*
X27940000Y11479000D03*
X29210000Y11479000D03*
X30480000Y11479000D03*
X31750000Y11479000D03*
X33020000Y11479000D03*
X34290000Y11479000D03*
X35560000Y11479000D03*
X36830000Y11479000D03*
X38100000Y11479000D03*
X39370000Y11479000D03*
X40640000Y11479000D03*
X40640000Y20779000D03*
X39370000Y20779000D03*
X38100000Y20779000D03*
X36830000Y20779000D03*
X35560000Y20779000D03*
X34290000Y20779000D03*
X33020000Y20779000D03*
X31750000Y20779000D03*
X30480000Y20779000D03*
X29210000Y20779000D03*
X27940000Y20779000D03*
X26670000Y20779000D03*
%TD*%
D15*
%TO.C,R2*%
X12176001Y22479000D03*
X10176001Y22479000D03*
%TD*%
D16*
%TO.C,R1*%
X24130000Y17891000D03*
X24130000Y15891000D03*
%TD*%
M02*
