M48
; DRILL file {KiCad 7.0.5} date Mon Feb 26 15:45:20 2024
; FORMAT={-:-/ absolute / metric / decimal}
; #@! TF.CreationDate,2024-02-26T15:45:20+01:00
; #@! TF.GenerationSoftware,Kicad,Pcbnew,7.0.5
; #@! TF.FileFunction,Plated,1,2,PTH
FMAT,2
METRIC
; #@! TA.AperFunction,Plated,PTH,ViaDrill
T1C0.600
; #@! TA.AperFunction,Plated,PTH,ComponentDrill
T2C0.800
; #@! TA.AperFunction,Plated,PTH,ComponentDrill
T3C1.000
%
G90
G05
T1
X19.685Y14.097
X22.352Y16.129
X22.352Y12.319
X23.368Y22.479
X40.894Y23.749
X42.418Y11.557
T2
X11.97Y28.067
X13.97Y28.067
X15.97Y28.067
T3
X3.175Y22.606
X3.175Y20.066
X3.175Y17.526
X3.175Y14.986
X3.175Y12.446
X3.175Y9.906
X20.32Y28.067
X22.86Y28.067
X26.165Y23.776
X26.165Y8.536
X28.705Y23.776
X28.705Y8.536
X31.245Y23.776
X31.245Y8.536
X33.785Y23.776
X33.785Y8.536
X36.325Y23.776
X36.325Y8.536
X38.865Y23.776
X38.865Y8.536
T0
M30
