%TF.GenerationSoftware,KiCad,Pcbnew,7.0.5*%
%TF.CreationDate,2024-02-07T02:00:26+01:00*%
%TF.ProjectId,thermometer-hw,74686572-6d6f-46d6-9574-65722d68772e,rev?*%
%TF.SameCoordinates,Original*%
%TF.FileFunction,Drillmap*%
%TF.FilePolarity,Positive*%
%FSLAX45Y45*%
G04 Gerber Fmt 4.5, Leading zero omitted, Abs format (unit mm)*
G04 Created by KiCad (PCBNEW 7.0.5) date 2024-02-07 02:00:26*
%MOMM*%
%LPD*%
G01*
G04 APERTURE LIST*
%ADD10C,0.100000*%
%ADD11C,0.200000*%
%ADD12C,0.270000*%
G04 APERTURE END LIST*
D10*
X6311900Y-3721100D02*
X9334500Y-3721100D01*
X9334500Y-8255000D01*
X6311900Y-8255000D01*
X6311900Y-3721100D01*
D11*
D12*
X6494400Y-3903600D02*
X6764400Y-4173600D01*
X6764400Y-3903600D02*
X6494400Y-4173600D01*
X6494400Y-5757800D02*
X6764400Y-6027800D01*
X6764400Y-5757800D02*
X6494400Y-6027800D01*
X8882000Y-3903600D02*
X9152000Y-4173600D01*
X9152000Y-3903600D02*
X8882000Y-4173600D01*
X8882000Y-7802500D02*
X9152000Y-8072500D01*
X9152000Y-7802500D02*
X8882000Y-8072500D01*
D11*
X6567677Y-8571484D02*
X6567677Y-8371484D01*
X6567677Y-8371484D02*
X6615296Y-8371484D01*
X6615296Y-8371484D02*
X6643867Y-8381008D01*
X6643867Y-8381008D02*
X6662915Y-8400055D01*
X6662915Y-8400055D02*
X6672439Y-8419103D01*
X6672439Y-8419103D02*
X6681962Y-8457198D01*
X6681962Y-8457198D02*
X6681962Y-8485770D01*
X6681962Y-8485770D02*
X6672439Y-8523865D01*
X6672439Y-8523865D02*
X6662915Y-8542912D01*
X6662915Y-8542912D02*
X6643867Y-8561960D01*
X6643867Y-8561960D02*
X6615296Y-8571484D01*
X6615296Y-8571484D02*
X6567677Y-8571484D01*
X6767677Y-8571484D02*
X6767677Y-8438150D01*
X6767677Y-8476246D02*
X6777201Y-8457198D01*
X6777201Y-8457198D02*
X6786724Y-8447674D01*
X6786724Y-8447674D02*
X6805772Y-8438150D01*
X6805772Y-8438150D02*
X6824820Y-8438150D01*
X6891486Y-8571484D02*
X6891486Y-8438150D01*
X6891486Y-8371484D02*
X6881962Y-8381008D01*
X6881962Y-8381008D02*
X6891486Y-8390531D01*
X6891486Y-8390531D02*
X6901010Y-8381008D01*
X6901010Y-8381008D02*
X6891486Y-8371484D01*
X6891486Y-8371484D02*
X6891486Y-8390531D01*
X7015296Y-8571484D02*
X6996248Y-8561960D01*
X6996248Y-8561960D02*
X6986724Y-8542912D01*
X6986724Y-8542912D02*
X6986724Y-8371484D01*
X7120058Y-8571484D02*
X7101010Y-8561960D01*
X7101010Y-8561960D02*
X7091486Y-8542912D01*
X7091486Y-8542912D02*
X7091486Y-8371484D01*
X7348629Y-8571484D02*
X7348629Y-8371484D01*
X7348629Y-8371484D02*
X7415296Y-8514341D01*
X7415296Y-8514341D02*
X7481962Y-8371484D01*
X7481962Y-8371484D02*
X7481962Y-8571484D01*
X7662915Y-8571484D02*
X7662915Y-8466722D01*
X7662915Y-8466722D02*
X7653391Y-8447674D01*
X7653391Y-8447674D02*
X7634343Y-8438150D01*
X7634343Y-8438150D02*
X7596248Y-8438150D01*
X7596248Y-8438150D02*
X7577201Y-8447674D01*
X7662915Y-8561960D02*
X7643867Y-8571484D01*
X7643867Y-8571484D02*
X7596248Y-8571484D01*
X7596248Y-8571484D02*
X7577201Y-8561960D01*
X7577201Y-8561960D02*
X7567677Y-8542912D01*
X7567677Y-8542912D02*
X7567677Y-8523865D01*
X7567677Y-8523865D02*
X7577201Y-8504817D01*
X7577201Y-8504817D02*
X7596248Y-8495293D01*
X7596248Y-8495293D02*
X7643867Y-8495293D01*
X7643867Y-8495293D02*
X7662915Y-8485770D01*
X7758153Y-8438150D02*
X7758153Y-8638150D01*
X7758153Y-8447674D02*
X7777201Y-8438150D01*
X7777201Y-8438150D02*
X7815296Y-8438150D01*
X7815296Y-8438150D02*
X7834343Y-8447674D01*
X7834343Y-8447674D02*
X7843867Y-8457198D01*
X7843867Y-8457198D02*
X7853391Y-8476246D01*
X7853391Y-8476246D02*
X7853391Y-8533389D01*
X7853391Y-8533389D02*
X7843867Y-8552436D01*
X7843867Y-8552436D02*
X7834343Y-8561960D01*
X7834343Y-8561960D02*
X7815296Y-8571484D01*
X7815296Y-8571484D02*
X7777201Y-8571484D01*
X7777201Y-8571484D02*
X7758153Y-8561960D01*
X7939105Y-8552436D02*
X7948629Y-8561960D01*
X7948629Y-8561960D02*
X7939105Y-8571484D01*
X7939105Y-8571484D02*
X7929582Y-8561960D01*
X7929582Y-8561960D02*
X7939105Y-8552436D01*
X7939105Y-8552436D02*
X7939105Y-8571484D01*
X7939105Y-8447674D02*
X7948629Y-8457198D01*
X7948629Y-8457198D02*
X7939105Y-8466722D01*
X7939105Y-8466722D02*
X7929582Y-8457198D01*
X7929582Y-8457198D02*
X7939105Y-8447674D01*
X7939105Y-8447674D02*
X7939105Y-8466722D01*
X6106900Y-8800000D02*
X6306900Y-9000000D01*
X6306900Y-8800000D02*
X6106900Y-9000000D01*
X6558153Y-8810531D02*
X6567677Y-8801008D01*
X6567677Y-8801008D02*
X6586724Y-8791484D01*
X6586724Y-8791484D02*
X6634343Y-8791484D01*
X6634343Y-8791484D02*
X6653391Y-8801008D01*
X6653391Y-8801008D02*
X6662915Y-8810531D01*
X6662915Y-8810531D02*
X6672439Y-8829579D01*
X6672439Y-8829579D02*
X6672439Y-8848627D01*
X6672439Y-8848627D02*
X6662915Y-8877198D01*
X6662915Y-8877198D02*
X6548629Y-8991484D01*
X6548629Y-8991484D02*
X6672439Y-8991484D01*
X6758153Y-8972436D02*
X6767677Y-8981960D01*
X6767677Y-8981960D02*
X6758153Y-8991484D01*
X6758153Y-8991484D02*
X6748629Y-8981960D01*
X6748629Y-8981960D02*
X6758153Y-8972436D01*
X6758153Y-8972436D02*
X6758153Y-8991484D01*
X6834343Y-8791484D02*
X6967677Y-8791484D01*
X6967677Y-8791484D02*
X6881962Y-8991484D01*
X7081962Y-8791484D02*
X7101010Y-8791484D01*
X7101010Y-8791484D02*
X7120058Y-8801008D01*
X7120058Y-8801008D02*
X7129582Y-8810531D01*
X7129582Y-8810531D02*
X7139105Y-8829579D01*
X7139105Y-8829579D02*
X7148629Y-8867674D01*
X7148629Y-8867674D02*
X7148629Y-8915293D01*
X7148629Y-8915293D02*
X7139105Y-8953389D01*
X7139105Y-8953389D02*
X7129582Y-8972436D01*
X7129582Y-8972436D02*
X7120058Y-8981960D01*
X7120058Y-8981960D02*
X7101010Y-8991484D01*
X7101010Y-8991484D02*
X7081962Y-8991484D01*
X7081962Y-8991484D02*
X7062915Y-8981960D01*
X7062915Y-8981960D02*
X7053391Y-8972436D01*
X7053391Y-8972436D02*
X7043867Y-8953389D01*
X7043867Y-8953389D02*
X7034343Y-8915293D01*
X7034343Y-8915293D02*
X7034343Y-8867674D01*
X7034343Y-8867674D02*
X7043867Y-8829579D01*
X7043867Y-8829579D02*
X7053391Y-8810531D01*
X7053391Y-8810531D02*
X7062915Y-8801008D01*
X7062915Y-8801008D02*
X7081962Y-8791484D01*
X7272439Y-8791484D02*
X7291486Y-8791484D01*
X7291486Y-8791484D02*
X7310534Y-8801008D01*
X7310534Y-8801008D02*
X7320058Y-8810531D01*
X7320058Y-8810531D02*
X7329582Y-8829579D01*
X7329582Y-8829579D02*
X7339105Y-8867674D01*
X7339105Y-8867674D02*
X7339105Y-8915293D01*
X7339105Y-8915293D02*
X7329582Y-8953389D01*
X7329582Y-8953389D02*
X7320058Y-8972436D01*
X7320058Y-8972436D02*
X7310534Y-8981960D01*
X7310534Y-8981960D02*
X7291486Y-8991484D01*
X7291486Y-8991484D02*
X7272439Y-8991484D01*
X7272439Y-8991484D02*
X7253391Y-8981960D01*
X7253391Y-8981960D02*
X7243867Y-8972436D01*
X7243867Y-8972436D02*
X7234343Y-8953389D01*
X7234343Y-8953389D02*
X7224820Y-8915293D01*
X7224820Y-8915293D02*
X7224820Y-8867674D01*
X7224820Y-8867674D02*
X7234343Y-8829579D01*
X7234343Y-8829579D02*
X7243867Y-8810531D01*
X7243867Y-8810531D02*
X7253391Y-8801008D01*
X7253391Y-8801008D02*
X7272439Y-8791484D01*
X7424820Y-8991484D02*
X7424820Y-8858150D01*
X7424820Y-8877198D02*
X7434343Y-8867674D01*
X7434343Y-8867674D02*
X7453391Y-8858150D01*
X7453391Y-8858150D02*
X7481963Y-8858150D01*
X7481963Y-8858150D02*
X7501010Y-8867674D01*
X7501010Y-8867674D02*
X7510534Y-8886722D01*
X7510534Y-8886722D02*
X7510534Y-8991484D01*
X7510534Y-8886722D02*
X7520058Y-8867674D01*
X7520058Y-8867674D02*
X7539105Y-8858150D01*
X7539105Y-8858150D02*
X7567677Y-8858150D01*
X7567677Y-8858150D02*
X7586724Y-8867674D01*
X7586724Y-8867674D02*
X7596248Y-8886722D01*
X7596248Y-8886722D02*
X7596248Y-8991484D01*
X7691486Y-8991484D02*
X7691486Y-8858150D01*
X7691486Y-8877198D02*
X7701010Y-8867674D01*
X7701010Y-8867674D02*
X7720058Y-8858150D01*
X7720058Y-8858150D02*
X7748629Y-8858150D01*
X7748629Y-8858150D02*
X7767677Y-8867674D01*
X7767677Y-8867674D02*
X7777201Y-8886722D01*
X7777201Y-8886722D02*
X7777201Y-8991484D01*
X7777201Y-8886722D02*
X7786724Y-8867674D01*
X7786724Y-8867674D02*
X7805772Y-8858150D01*
X7805772Y-8858150D02*
X7834343Y-8858150D01*
X7834343Y-8858150D02*
X7853391Y-8867674D01*
X7853391Y-8867674D02*
X7862915Y-8886722D01*
X7862915Y-8886722D02*
X7862915Y-8991484D01*
X8253391Y-8781960D02*
X8081963Y-9039103D01*
X8510534Y-8791484D02*
X8529582Y-8791484D01*
X8529582Y-8791484D02*
X8548629Y-8801008D01*
X8548629Y-8801008D02*
X8558153Y-8810531D01*
X8558153Y-8810531D02*
X8567677Y-8829579D01*
X8567677Y-8829579D02*
X8577201Y-8867674D01*
X8577201Y-8867674D02*
X8577201Y-8915293D01*
X8577201Y-8915293D02*
X8567677Y-8953389D01*
X8567677Y-8953389D02*
X8558153Y-8972436D01*
X8558153Y-8972436D02*
X8548629Y-8981960D01*
X8548629Y-8981960D02*
X8529582Y-8991484D01*
X8529582Y-8991484D02*
X8510534Y-8991484D01*
X8510534Y-8991484D02*
X8491487Y-8981960D01*
X8491487Y-8981960D02*
X8481963Y-8972436D01*
X8481963Y-8972436D02*
X8472439Y-8953389D01*
X8472439Y-8953389D02*
X8462915Y-8915293D01*
X8462915Y-8915293D02*
X8462915Y-8867674D01*
X8462915Y-8867674D02*
X8472439Y-8829579D01*
X8472439Y-8829579D02*
X8481963Y-8810531D01*
X8481963Y-8810531D02*
X8491487Y-8801008D01*
X8491487Y-8801008D02*
X8510534Y-8791484D01*
X8662915Y-8972436D02*
X8672439Y-8981960D01*
X8672439Y-8981960D02*
X8662915Y-8991484D01*
X8662915Y-8991484D02*
X8653391Y-8981960D01*
X8653391Y-8981960D02*
X8662915Y-8972436D01*
X8662915Y-8972436D02*
X8662915Y-8991484D01*
X8862915Y-8991484D02*
X8748629Y-8991484D01*
X8805772Y-8991484D02*
X8805772Y-8791484D01*
X8805772Y-8791484D02*
X8786725Y-8820055D01*
X8786725Y-8820055D02*
X8767677Y-8839103D01*
X8767677Y-8839103D02*
X8748629Y-8848627D01*
X8986725Y-8791484D02*
X9005772Y-8791484D01*
X9005772Y-8791484D02*
X9024820Y-8801008D01*
X9024820Y-8801008D02*
X9034344Y-8810531D01*
X9034344Y-8810531D02*
X9043868Y-8829579D01*
X9043868Y-8829579D02*
X9053391Y-8867674D01*
X9053391Y-8867674D02*
X9053391Y-8915293D01*
X9053391Y-8915293D02*
X9043868Y-8953389D01*
X9043868Y-8953389D02*
X9034344Y-8972436D01*
X9034344Y-8972436D02*
X9024820Y-8981960D01*
X9024820Y-8981960D02*
X9005772Y-8991484D01*
X9005772Y-8991484D02*
X8986725Y-8991484D01*
X8986725Y-8991484D02*
X8967677Y-8981960D01*
X8967677Y-8981960D02*
X8958153Y-8972436D01*
X8958153Y-8972436D02*
X8948629Y-8953389D01*
X8948629Y-8953389D02*
X8939106Y-8915293D01*
X8939106Y-8915293D02*
X8939106Y-8867674D01*
X8939106Y-8867674D02*
X8948629Y-8829579D01*
X8948629Y-8829579D02*
X8958153Y-8810531D01*
X8958153Y-8810531D02*
X8967677Y-8801008D01*
X8967677Y-8801008D02*
X8986725Y-8791484D01*
X9224820Y-8791484D02*
X9186725Y-8791484D01*
X9186725Y-8791484D02*
X9167677Y-8801008D01*
X9167677Y-8801008D02*
X9158153Y-8810531D01*
X9158153Y-8810531D02*
X9139106Y-8839103D01*
X9139106Y-8839103D02*
X9129582Y-8877198D01*
X9129582Y-8877198D02*
X9129582Y-8953389D01*
X9129582Y-8953389D02*
X9139106Y-8972436D01*
X9139106Y-8972436D02*
X9148629Y-8981960D01*
X9148629Y-8981960D02*
X9167677Y-8991484D01*
X9167677Y-8991484D02*
X9205772Y-8991484D01*
X9205772Y-8991484D02*
X9224820Y-8981960D01*
X9224820Y-8981960D02*
X9234344Y-8972436D01*
X9234344Y-8972436D02*
X9243868Y-8953389D01*
X9243868Y-8953389D02*
X9243868Y-8905770D01*
X9243868Y-8905770D02*
X9234344Y-8886722D01*
X9234344Y-8886722D02*
X9224820Y-8877198D01*
X9224820Y-8877198D02*
X9205772Y-8867674D01*
X9205772Y-8867674D02*
X9167677Y-8867674D01*
X9167677Y-8867674D02*
X9148629Y-8877198D01*
X9148629Y-8877198D02*
X9139106Y-8886722D01*
X9139106Y-8886722D02*
X9129582Y-8905770D01*
X9310534Y-8791484D02*
X9434344Y-8791484D01*
X9434344Y-8791484D02*
X9367677Y-8867674D01*
X9367677Y-8867674D02*
X9396249Y-8867674D01*
X9396249Y-8867674D02*
X9415296Y-8877198D01*
X9415296Y-8877198D02*
X9424820Y-8886722D01*
X9424820Y-8886722D02*
X9434344Y-8905770D01*
X9434344Y-8905770D02*
X9434344Y-8953389D01*
X9434344Y-8953389D02*
X9424820Y-8972436D01*
X9424820Y-8972436D02*
X9415296Y-8981960D01*
X9415296Y-8981960D02*
X9396249Y-8991484D01*
X9396249Y-8991484D02*
X9339106Y-8991484D01*
X9339106Y-8991484D02*
X9320058Y-8981960D01*
X9320058Y-8981960D02*
X9310534Y-8972436D01*
X9510534Y-8791484D02*
X9510534Y-8829579D01*
X9586725Y-8791484D02*
X9586725Y-8829579D01*
X9881963Y-9067674D02*
X9872439Y-9058150D01*
X9872439Y-9058150D02*
X9853391Y-9029579D01*
X9853391Y-9029579D02*
X9843868Y-9010531D01*
X9843868Y-9010531D02*
X9834344Y-8981960D01*
X9834344Y-8981960D02*
X9824820Y-8934341D01*
X9824820Y-8934341D02*
X9824820Y-8896246D01*
X9824820Y-8896246D02*
X9834344Y-8848627D01*
X9834344Y-8848627D02*
X9843868Y-8820055D01*
X9843868Y-8820055D02*
X9853391Y-8801008D01*
X9853391Y-8801008D02*
X9872439Y-8772436D01*
X9872439Y-8772436D02*
X9881963Y-8762912D01*
X10043868Y-8858150D02*
X10043868Y-8991484D01*
X9996249Y-8781960D02*
X9948630Y-8924817D01*
X9948630Y-8924817D02*
X10072439Y-8924817D01*
X10301011Y-8991484D02*
X10301011Y-8791484D01*
X10386725Y-8991484D02*
X10386725Y-8886722D01*
X10386725Y-8886722D02*
X10377201Y-8867674D01*
X10377201Y-8867674D02*
X10358153Y-8858150D01*
X10358153Y-8858150D02*
X10329582Y-8858150D01*
X10329582Y-8858150D02*
X10310534Y-8867674D01*
X10310534Y-8867674D02*
X10301011Y-8877198D01*
X10510534Y-8991484D02*
X10491487Y-8981960D01*
X10491487Y-8981960D02*
X10481963Y-8972436D01*
X10481963Y-8972436D02*
X10472439Y-8953389D01*
X10472439Y-8953389D02*
X10472439Y-8896246D01*
X10472439Y-8896246D02*
X10481963Y-8877198D01*
X10481963Y-8877198D02*
X10491487Y-8867674D01*
X10491487Y-8867674D02*
X10510534Y-8858150D01*
X10510534Y-8858150D02*
X10539106Y-8858150D01*
X10539106Y-8858150D02*
X10558153Y-8867674D01*
X10558153Y-8867674D02*
X10567677Y-8877198D01*
X10567677Y-8877198D02*
X10577201Y-8896246D01*
X10577201Y-8896246D02*
X10577201Y-8953389D01*
X10577201Y-8953389D02*
X10567677Y-8972436D01*
X10567677Y-8972436D02*
X10558153Y-8981960D01*
X10558153Y-8981960D02*
X10539106Y-8991484D01*
X10539106Y-8991484D02*
X10510534Y-8991484D01*
X10691487Y-8991484D02*
X10672439Y-8981960D01*
X10672439Y-8981960D02*
X10662915Y-8962912D01*
X10662915Y-8962912D02*
X10662915Y-8791484D01*
X10843868Y-8981960D02*
X10824820Y-8991484D01*
X10824820Y-8991484D02*
X10786725Y-8991484D01*
X10786725Y-8991484D02*
X10767677Y-8981960D01*
X10767677Y-8981960D02*
X10758153Y-8962912D01*
X10758153Y-8962912D02*
X10758153Y-8886722D01*
X10758153Y-8886722D02*
X10767677Y-8867674D01*
X10767677Y-8867674D02*
X10786725Y-8858150D01*
X10786725Y-8858150D02*
X10824820Y-8858150D01*
X10824820Y-8858150D02*
X10843868Y-8867674D01*
X10843868Y-8867674D02*
X10853392Y-8886722D01*
X10853392Y-8886722D02*
X10853392Y-8905770D01*
X10853392Y-8905770D02*
X10758153Y-8924817D01*
X10929582Y-8981960D02*
X10948630Y-8991484D01*
X10948630Y-8991484D02*
X10986725Y-8991484D01*
X10986725Y-8991484D02*
X11005773Y-8981960D01*
X11005773Y-8981960D02*
X11015296Y-8962912D01*
X11015296Y-8962912D02*
X11015296Y-8953389D01*
X11015296Y-8953389D02*
X11005773Y-8934341D01*
X11005773Y-8934341D02*
X10986725Y-8924817D01*
X10986725Y-8924817D02*
X10958153Y-8924817D01*
X10958153Y-8924817D02*
X10939106Y-8915293D01*
X10939106Y-8915293D02*
X10929582Y-8896246D01*
X10929582Y-8896246D02*
X10929582Y-8886722D01*
X10929582Y-8886722D02*
X10939106Y-8867674D01*
X10939106Y-8867674D02*
X10958153Y-8858150D01*
X10958153Y-8858150D02*
X10986725Y-8858150D01*
X10986725Y-8858150D02*
X11005773Y-8867674D01*
X11081963Y-9067674D02*
X11091487Y-9058150D01*
X11091487Y-9058150D02*
X11110534Y-9029579D01*
X11110534Y-9029579D02*
X11120058Y-9010531D01*
X11120058Y-9010531D02*
X11129582Y-8981960D01*
X11129582Y-8981960D02*
X11139106Y-8934341D01*
X11139106Y-8934341D02*
X11139106Y-8896246D01*
X11139106Y-8896246D02*
X11129582Y-8848627D01*
X11129582Y-8848627D02*
X11120058Y-8820055D01*
X11120058Y-8820055D02*
X11110534Y-8801008D01*
X11110534Y-8801008D02*
X11091487Y-8772436D01*
X11091487Y-8772436D02*
X11081963Y-8762912D01*
X11443868Y-9067674D02*
X11434344Y-9058150D01*
X11434344Y-9058150D02*
X11415296Y-9029579D01*
X11415296Y-9029579D02*
X11405772Y-9010531D01*
X11405772Y-9010531D02*
X11396249Y-8981960D01*
X11396249Y-8981960D02*
X11386725Y-8934341D01*
X11386725Y-8934341D02*
X11386725Y-8896246D01*
X11386725Y-8896246D02*
X11396249Y-8848627D01*
X11396249Y-8848627D02*
X11405772Y-8820055D01*
X11405772Y-8820055D02*
X11415296Y-8801008D01*
X11415296Y-8801008D02*
X11434344Y-8772436D01*
X11434344Y-8772436D02*
X11443868Y-8762912D01*
X11520058Y-8858150D02*
X11520058Y-8991484D01*
X11520058Y-8877198D02*
X11529582Y-8867674D01*
X11529582Y-8867674D02*
X11548630Y-8858150D01*
X11548630Y-8858150D02*
X11577201Y-8858150D01*
X11577201Y-8858150D02*
X11596249Y-8867674D01*
X11596249Y-8867674D02*
X11605772Y-8886722D01*
X11605772Y-8886722D02*
X11605772Y-8991484D01*
X11729582Y-8991484D02*
X11710534Y-8981960D01*
X11710534Y-8981960D02*
X11701011Y-8972436D01*
X11701011Y-8972436D02*
X11691487Y-8953389D01*
X11691487Y-8953389D02*
X11691487Y-8896246D01*
X11691487Y-8896246D02*
X11701011Y-8877198D01*
X11701011Y-8877198D02*
X11710534Y-8867674D01*
X11710534Y-8867674D02*
X11729582Y-8858150D01*
X11729582Y-8858150D02*
X11758153Y-8858150D01*
X11758153Y-8858150D02*
X11777201Y-8867674D01*
X11777201Y-8867674D02*
X11786725Y-8877198D01*
X11786725Y-8877198D02*
X11796249Y-8896246D01*
X11796249Y-8896246D02*
X11796249Y-8953389D01*
X11796249Y-8953389D02*
X11786725Y-8972436D01*
X11786725Y-8972436D02*
X11777201Y-8981960D01*
X11777201Y-8981960D02*
X11758153Y-8991484D01*
X11758153Y-8991484D02*
X11729582Y-8991484D01*
X11853392Y-8858150D02*
X11929582Y-8858150D01*
X11881963Y-8791484D02*
X11881963Y-8962912D01*
X11881963Y-8962912D02*
X11891487Y-8981960D01*
X11891487Y-8981960D02*
X11910534Y-8991484D01*
X11910534Y-8991484D02*
X11929582Y-8991484D01*
X12148630Y-8858150D02*
X12148630Y-9058150D01*
X12148630Y-8867674D02*
X12167677Y-8858150D01*
X12167677Y-8858150D02*
X12205773Y-8858150D01*
X12205773Y-8858150D02*
X12224820Y-8867674D01*
X12224820Y-8867674D02*
X12234344Y-8877198D01*
X12234344Y-8877198D02*
X12243868Y-8896246D01*
X12243868Y-8896246D02*
X12243868Y-8953389D01*
X12243868Y-8953389D02*
X12234344Y-8972436D01*
X12234344Y-8972436D02*
X12224820Y-8981960D01*
X12224820Y-8981960D02*
X12205773Y-8991484D01*
X12205773Y-8991484D02*
X12167677Y-8991484D01*
X12167677Y-8991484D02*
X12148630Y-8981960D01*
X12358153Y-8991484D02*
X12339106Y-8981960D01*
X12339106Y-8981960D02*
X12329582Y-8962912D01*
X12329582Y-8962912D02*
X12329582Y-8791484D01*
X12520058Y-8991484D02*
X12520058Y-8886722D01*
X12520058Y-8886722D02*
X12510534Y-8867674D01*
X12510534Y-8867674D02*
X12491487Y-8858150D01*
X12491487Y-8858150D02*
X12453392Y-8858150D01*
X12453392Y-8858150D02*
X12434344Y-8867674D01*
X12520058Y-8981960D02*
X12501011Y-8991484D01*
X12501011Y-8991484D02*
X12453392Y-8991484D01*
X12453392Y-8991484D02*
X12434344Y-8981960D01*
X12434344Y-8981960D02*
X12424820Y-8962912D01*
X12424820Y-8962912D02*
X12424820Y-8943865D01*
X12424820Y-8943865D02*
X12434344Y-8924817D01*
X12434344Y-8924817D02*
X12453392Y-8915293D01*
X12453392Y-8915293D02*
X12501011Y-8915293D01*
X12501011Y-8915293D02*
X12520058Y-8905770D01*
X12586725Y-8858150D02*
X12662915Y-8858150D01*
X12615296Y-8791484D02*
X12615296Y-8962912D01*
X12615296Y-8962912D02*
X12624820Y-8981960D01*
X12624820Y-8981960D02*
X12643868Y-8991484D01*
X12643868Y-8991484D02*
X12662915Y-8991484D01*
X12805773Y-8981960D02*
X12786725Y-8991484D01*
X12786725Y-8991484D02*
X12748630Y-8991484D01*
X12748630Y-8991484D02*
X12729582Y-8981960D01*
X12729582Y-8981960D02*
X12720058Y-8962912D01*
X12720058Y-8962912D02*
X12720058Y-8886722D01*
X12720058Y-8886722D02*
X12729582Y-8867674D01*
X12729582Y-8867674D02*
X12748630Y-8858150D01*
X12748630Y-8858150D02*
X12786725Y-8858150D01*
X12786725Y-8858150D02*
X12805773Y-8867674D01*
X12805773Y-8867674D02*
X12815296Y-8886722D01*
X12815296Y-8886722D02*
X12815296Y-8905770D01*
X12815296Y-8905770D02*
X12720058Y-8924817D01*
X12986725Y-8991484D02*
X12986725Y-8791484D01*
X12986725Y-8981960D02*
X12967677Y-8991484D01*
X12967677Y-8991484D02*
X12929582Y-8991484D01*
X12929582Y-8991484D02*
X12910534Y-8981960D01*
X12910534Y-8981960D02*
X12901011Y-8972436D01*
X12901011Y-8972436D02*
X12891487Y-8953389D01*
X12891487Y-8953389D02*
X12891487Y-8896246D01*
X12891487Y-8896246D02*
X12901011Y-8877198D01*
X12901011Y-8877198D02*
X12910534Y-8867674D01*
X12910534Y-8867674D02*
X12929582Y-8858150D01*
X12929582Y-8858150D02*
X12967677Y-8858150D01*
X12967677Y-8858150D02*
X12986725Y-8867674D01*
X13062915Y-9067674D02*
X13072439Y-9058150D01*
X13072439Y-9058150D02*
X13091487Y-9029579D01*
X13091487Y-9029579D02*
X13101011Y-9010531D01*
X13101011Y-9010531D02*
X13110534Y-8981960D01*
X13110534Y-8981960D02*
X13120058Y-8934341D01*
X13120058Y-8934341D02*
X13120058Y-8896246D01*
X13120058Y-8896246D02*
X13110534Y-8848627D01*
X13110534Y-8848627D02*
X13101011Y-8820055D01*
X13101011Y-8820055D02*
X13091487Y-8801008D01*
X13091487Y-8801008D02*
X13072439Y-8772436D01*
X13072439Y-8772436D02*
X13062915Y-8762912D01*
M02*
